<svg width="15" height="15" viewBox="0 0 15 15" fill="none" xmlns="http://www.w3.org/2000/svg">
<path d="M5.47449 7.50004C5.47449 6.24252 6.49334 5.22283 7.75049 5.22283C9.00765 5.22283 10.027 6.24252 10.027 7.50004C10.027 8.75756 9.00765 9.77725 7.75049 9.77725C6.49334 9.77725 5.47449 8.75756 5.47449 7.50004ZM4.24383 7.50004C4.24383 9.43734 5.81376 11.0077 7.75049 11.0077C9.68723 11.0077 11.2572 9.43734 11.2572 7.50004C11.2572 5.56274 9.68723 3.99235 7.75049 3.99235C5.81376 3.99235 4.24383 5.56274 4.24383 7.50004ZM10.5765 3.85327C10.5764 4.0154 10.6244 4.17391 10.7144 4.30875C10.8044 4.44359 10.9324 4.54871 11.0821 4.61081C11.2318 4.67291 11.3966 4.68921 11.5555 4.65765C11.7145 4.62608 11.8606 4.54807 11.9752 4.43347C12.0899 4.31887 12.168 4.17284 12.1997 4.01384C12.2313 3.85484 12.2152 3.69002 12.1532 3.54021C12.0913 3.3904 11.9863 3.26233 11.8515 3.1722C11.7168 3.08207 11.5584 3.03393 11.3963 3.03387H11.396C11.1787 3.03397 10.9704 3.12032 10.8167 3.27396C10.6631 3.4276 10.5767 3.63596 10.5765 3.85327ZM4.99153 13.0604C4.32572 13.0301 3.96384 12.9191 3.72334 12.8254C3.4045 12.7012 3.17701 12.5534 2.93783 12.3144C2.69865 12.0755 2.55059 11.8482 2.42701 11.5292C2.33326 11.2888 2.22236 10.9267 2.19209 10.2607C2.15898 9.54062 2.15237 9.32432 2.15237 7.50009C2.15237 5.67586 2.15953 5.46017 2.19209 4.73951C2.22241 4.07351 2.33414 3.71212 2.42701 3.47095C2.55114 3.15202 2.69898 2.92446 2.93783 2.68521C3.17669 2.44596 3.40396 2.29786 3.72334 2.17425C3.96373 2.08047 4.32572 1.96953 4.99153 1.93926C5.71138 1.90614 5.92761 1.89953 7.75049 1.89953C9.57337 1.89953 9.78983 1.90668 10.5103 1.93926C11.1761 1.96959 11.5374 2.08134 11.7785 2.17425C12.0973 2.29786 12.3248 2.44629 12.564 2.68521C12.8032 2.92414 12.9507 3.15202 13.0748 3.47095C13.1685 3.71141 13.2794 4.07351 13.3097 4.73951C13.3428 5.46017 13.3494 5.67586 13.3494 7.50009C13.3494 9.32432 13.3428 9.54002 13.3097 10.2607C13.2794 10.9267 13.1679 11.2887 13.0748 11.5292C12.9507 11.8482 12.8028 12.0757 12.564 12.3144C12.3251 12.5531 12.0973 12.7012 11.7785 12.8254C11.5381 12.9192 11.1761 13.0301 10.5103 13.0604C9.79043 13.0935 9.57419 13.1001 7.75049 13.1001C5.92679 13.1001 5.71116 13.0935 4.99153 13.0604ZM4.93499 0.710314C4.20799 0.743432 3.71121 0.85874 3.27737 1.02761C2.82807 1.20199 2.44772 1.43594 2.06764 1.81553C1.68756 2.19512 1.45428 2.57619 1.27994 3.02562C1.11113 3.45986 0.995851 3.95651 0.962744 4.68372C0.92909 5.41207 0.921387 5.64493 0.921387 7.50004C0.921387 9.35515 0.92909 9.588 0.962744 10.3164C0.995851 11.0436 1.11113 11.5402 1.27994 11.9745C1.45428 12.4236 1.68761 12.8051 2.06764 13.1845C2.44766 13.564 2.82807 13.7976 3.27737 13.9725C3.71203 14.1413 4.20799 14.2566 4.93499 14.2898C5.66352 14.3229 5.89593 14.3311 7.75049 14.3311C9.60506 14.3311 9.83785 14.3234 10.566 14.2898C11.2931 14.2566 11.7895 14.1413 12.2236 13.9725C12.6726 13.7976 13.0533 13.5641 13.4333 13.1845C13.8134 12.805 14.0462 12.4236 14.221 11.9745C14.3899 11.5402 14.5057 11.0436 14.5382 10.3164C14.5713 9.58746 14.5791 9.35515 14.5791 7.50004C14.5791 5.64493 14.5713 5.41207 14.5382 4.68372C14.5051 3.95645 14.3899 3.45958 14.221 3.02562C14.0462 2.57646 13.8128 2.19572 13.4333 1.81553C13.0539 1.43534 12.6726 1.20199 12.2242 1.02761C11.7895 0.85874 11.293 0.742885 10.5665 0.710314C9.8384 0.677197 9.60561 0.668945 7.75104 0.668945C5.89647 0.668945 5.66352 0.676651 4.93499 0.710314Z" fill="#1D3068"/>
</svg>
