<svg width="14" height="11" viewBox="0 0 14 11" fill="none" xmlns="http://www.w3.org/2000/svg">
<path d="M1.5633 4.79047C1.5633 4.79047 7.29653 2.37573 9.28491 1.52544C10.0472 1.18536 12.6321 0.0969807 12.6321 0.0969807C12.6321 0.0969807 13.8251 -0.379142 13.7257 0.777203C13.6925 1.25337 13.4274 2.91987 13.1623 4.72245C12.7646 7.27328 12.3338 10.0621 12.3338 10.0621C12.3338 10.0621 12.2675 10.8444 11.7041 10.9804C11.1408 11.1165 10.2128 10.5043 10.0472 10.3682C9.91455 10.2662 7.56164 8.73572 6.7 7.98748C6.46801 7.78343 6.2029 7.37533 6.73311 6.89916C7.92618 5.7768 9.35118 4.38237 10.2128 3.49809C10.6105 3.08994 11.0082 2.13765 9.35118 3.29399C6.99826 4.96054 4.67846 6.52504 4.67846 6.52504C4.67846 6.52504 4.1482 6.86512 3.15402 6.55902C2.15978 6.25297 0.999879 5.84481 0.999879 5.84481C0.999879 5.84481 0.204564 5.33466 1.5633 4.79047Z" fill="#1D3068"/>
</svg>
