<svg width="13" height="15" viewBox="0 0 13 15" fill="none" xmlns="http://www.w3.org/2000/svg">
<path d="M11.1167 3.66062C11.0261 3.61381 10.938 3.5625 10.8525 3.50688C10.6041 3.34265 10.3763 3.14913 10.1741 2.9305C9.66819 2.3516 9.47923 1.76432 9.40963 1.35314H9.41243C9.35428 1.01184 9.37832 0.791016 9.38196 0.791016H7.07756V9.70171C7.07756 9.82135 7.07756 9.93959 7.07253 10.0564C7.07253 10.071 7.07113 10.0844 7.07029 10.1C7.07029 10.1065 7.07029 10.1132 7.0689 10.1199C7.0689 10.1216 7.0689 10.1232 7.0689 10.1249C7.04461 10.4446 6.94212 10.7535 6.77045 11.0243C6.59878 11.2951 6.36319 11.5196 6.08441 11.678C5.79386 11.8433 5.46524 11.93 5.13096 11.9295C4.0573 11.9295 3.18714 11.0541 3.18714 9.97285C3.18714 8.89165 4.0573 8.01618 5.13096 8.01618C5.33419 8.01599 5.53618 8.04797 5.72942 8.11093L5.73221 5.7646C5.14559 5.68883 4.54963 5.73545 3.98194 5.90153C3.41424 6.0676 2.88712 6.34953 2.43383 6.72952C2.03664 7.07462 1.70273 7.48639 1.44711 7.94629C1.34983 8.11401 0.982818 8.78794 0.938373 9.88173C0.910421 10.5026 1.09686 11.1457 1.18575 11.4116V11.4172C1.24166 11.5737 1.45829 12.1079 1.81133 12.5582C2.096 12.9194 2.43234 13.2367 2.80951 13.4999V13.4943L2.8151 13.4999C3.93068 14.258 5.16757 14.2082 5.16757 14.2082C5.38169 14.1995 6.09895 14.2082 6.91348 13.8222C7.8169 13.3942 8.33123 12.7566 8.33123 12.7566C8.6598 12.3757 8.92108 11.9415 9.10383 11.4728C9.31236 10.9246 9.38196 10.2672 9.38196 10.0044V5.27711C9.40991 5.29388 9.78224 5.54014 9.78224 5.54014C9.78224 5.54014 10.3186 5.88396 11.1555 6.10786C11.756 6.26719 12.5649 6.30073 12.5649 6.30073V4.0131C12.2815 4.04385 11.7059 3.9544 11.1167 3.66062Z" fill="#1D3068"/>
</svg>
