<svg width="17" height="11" viewBox="0 0 17 11" fill="none" xmlns="http://www.w3.org/2000/svg">
<path d="M16.2042 1.74613C16.0253 1.07527 15.4976 0.547524 14.8267 0.365645C13.6162 0.0406494 8.75024 0.0406494 8.75024 0.0406494C8.75024 0.0406494 3.88725 0.0406494 2.67076 0.365645C1.9999 0.544542 1.47215 1.07229 1.29326 1.74613C0.968262 2.96263 0.968262 5.49998 0.968262 5.49998C0.968262 5.49998 0.968262 8.04032 1.29326 9.25383C1.47215 9.9247 1.9999 10.4524 2.67076 10.6343C3.88725 10.9593 8.75024 10.9593 8.75024 10.9593C8.75024 10.9593 13.6162 10.9593 14.8297 10.6343C15.4976 10.4554 16.0254 9.92768 16.2072 9.25383C16.5322 8.03734 16.5322 5.49998 16.5322 5.49998C16.5322 5.49998 16.5322 2.95965 16.2072 1.74613H16.2042ZM7.19385 7.84055V3.15942L11.2369 5.49998L7.19385 7.84055Z" fill="#1D3068"/>
</svg>
